<?xml version="1.0" encoding="UTF-8" standalone="no"?>
<!-- Created with Inkscape (http://www.inkscape.org/) -->

<svg
   width="210mm"
   height="210mm"
   viewBox="0 0 210 210"
   version="1.1"
   id="svg1"
   xml:space="preserve"
   inkscape:version="1.4 (e7c3feb100, 2024-10-09)"
   sodipodi:docname="logo.svg"
   inkscape:export-filename="logo.png"
   inkscape:export-xdpi="96"
   inkscape:export-ydpi="96"
   xmlns:inkscape="http://www.inkscape.org/namespaces/inkscape"
   xmlns:sodipodi="http://sodipodi.sourceforge.net/DTD/sodipodi-0.dtd"
   xmlns="http://www.w3.org/2000/svg"
   xmlns:svg="http://www.w3.org/2000/svg"><sodipodi:namedview
     id="namedview1"
     pagecolor="#ffffff"
     bordercolor="#000000"
     borderopacity="0.25"
     inkscape:showpageshadow="2"
     inkscape:pageopacity="0.0"
     inkscape:pagecheckerboard="0"
     inkscape:deskcolor="#d1d1d1"
     inkscape:document-units="mm"
     inkscape:zoom="1.7015291"
     inkscape:cx="429.31971"
     inkscape:cy="372.01831"
     inkscape:window-width="3428"
     inkscape:window-height="2132"
     inkscape:window-x="0"
     inkscape:window-y="0"
     inkscape:window-maximized="1"
     inkscape:current-layer="layer1" /><defs
     id="defs1" /><g
     inkscape:label="Layer 1"
     inkscape:groupmode="layer"
     id="layer1"><path
       id="rect1"
       style="fill:#2aff80;stroke:none;stroke-width:0.495212"
       d="m 148.95699,27.104996 c -2.7828,-0.0019 -5.58603,0.205961 -7.18461,0.623775 -3.85372,1.007194 -9.10339,3.784281 -12.93871,6.844258 -8.17222,6.520134 -11.06324,10.045736 -25.18966,30.717269 -2.16122,3.162546 -3.993184,5.292285 -8.048302,9.355993 -7.395547,7.411208 -10.531799,9.643642 -15.513137,11.044347 -2.434401,0.68453 -3.167624,0.709932 -23.704114,0.814427 l -21.191736,0.108117 -0.591147,-0.907194 c -0.542851,-0.832993 -0.58134,-1.693586 -0.474709,-10.579234 0.06388,-5.319928 0.253278,-9.930633 0.420969,-10.245913 0.286084,-0.537869 1.784047,-0.573646 24.286941,-0.578352 13.19032,-0.0027 24.150452,-0.113316 24.355396,-0.245672 0.617764,-0.398969 1.851746,-3.673532 5.364471,-14.235518 1.840963,-5.535361 3.260773,-10.289107 3.155343,-10.563878 -0.170279,-0.443725 -4.399031,-0.499661 -37.82255,-0.499661 -27.101223,0 -37.942563,0.103822 -38.744459,0.370426 -1.568968,0.521639 -4.064257,3.045119 -4.875686,4.931347 -0.3773891,0.877259 -0.8326759,2.807013 -1.012116,4.288377 -0.2079891,1.716954 -0.2925242,22.109236 -0.2328759,56.24984 l 0.094041,53.55641 0.7830789,1.96538 c 0.97381,2.44221 2.708233,4.16023 5.009397,4.96205 1.625496,0.56638 2.893535,0.59983 19.102246,0.5035 16.483394,-0.0979 17.487022,-0.0702 19.864214,0.55084 5.373397,1.40378 8.021582,3.18202 15.184936,10.19665 7.990873,7.82497 11.402302,9.92427 18.124038,11.15246 2.253661,0.41178 7.111753,0.0769 9.836459,-0.67816 7.934502,-2.19876 13.261952,-7.04723 21.583922,-19.64412 9.49408,-14.37109 10.5374,-15.88491 12.48703,-18.12212 2.87764,-3.30209 5.72459,-5.62936 9.15766,-7.48595 3.42524,-1.85235 5.64747,-2.55271 8.11932,-2.55844 2.64159,-0.006 7.29294,0.92506 9.44428,1.89052 3.02563,1.35783 9.0847,5.9203 14.48375,10.9068 3.64511,3.36658 10.20498,6.98726 15.09984,8.33429 1.85711,0.51105 9.76551,1.05929 10.61251,0.73572 0.33787,-0.12908 0.41485,-0.99945 0.33588,-3.81302 l -0.10239,-3.64541 -1.69988,-0.004 c -2.48008,-0.005 -9.04637,-1.42619 -11.24843,-2.43433 -3.01711,-1.38128 -7.85158,-4.77774 -11.52481,-8.09692 -6.37135,-5.75729 -13.54798,-10.07299 -19.04723,-11.45445 -5.61841,-1.41139 -12.37062,-0.27405 -18.33131,3.08817 -2.80889,1.58441 -7.73462,6.12367 -11.37064,10.47816 -2.75514,3.29953 -4.78731,6.26137 -9.94458,14.49334 -4.11888,6.57454 -6.73368,10.15686 -9.63493,13.19973 -5.471945,5.73904 -11.752076,8.51205 -17.198294,7.59342 -5.79335,-0.97716 -12.043198,-5.712 -18.95894,-14.36219 -4.838729,-6.05226 -6.856017,-8.22661 -9.826224,-10.59267 -1.317958,-1.04989 -2.150012,-1.90907 -1.848935,-1.90907 1.076764,0 4.509724,1.03601 9.858212,2.9743 7.822848,2.83499 10.26308,3.36026 14.695512,3.16429 4.20154,-0.18577 7.23542,-1.069 11.577278,-3.37158 5.877202,-3.11681 10.397081,-7.42269 15.537451,-14.80171 12.47459,-17.90729 16.32373,-23.18095 19.43429,-26.62659 6.6759,-7.39503 12.41614,-10.82962 19.29097,-11.54208 4.2459,-0.44002 7.23025,0.13043 11.473,2.19441 3.6063,1.75435 5.66125,3.35085 11.78392,9.15446 2.52223,2.3908 5.32289,4.91084 6.22368,5.59991 3.87779,2.96636 11.5977,5.55811 17.77025,5.96585 l 3.02994,0.20025 v -3.774 -3.774 l -2.28077,-0.22521 c -5.08288,-0.50084 -10.63101,-2.70179 -14.8964,-5.91019 -1.07026,-0.80503 -3.83104,-3.1908 -6.13476,-5.30113 -11.04533,-10.11775 -18.43599,-13.387029 -27.71227,-12.258978 -5.89338,0.71667 -11.41881,2.988215 -15.80807,6.500058 -2.77838,2.22297 -8.63,8.27842 -11.62846,12.03343 -1.00704,1.26112 -4.56905,6.39387 -7.91586,11.40582 -6.72213,10.06656 -9.44516,13.55176 -14.33725,18.35179 -7.066788,6.93381 -13.165275,9.54027 -19.393346,8.28759 -2.932547,-0.58984 -7.765267,-2.86332 -13.374385,-6.2915 -8.503472,-5.19718 -12.065557,-6.25587 -22.601788,-6.71951 -5.919493,-0.26048 -7.275097,-0.40928 -7.592788,-0.83298 -0.661591,-0.88232 -0.82002,-4.19912 -0.686473,-14.37435 0.131281,-10.00275 0.330101,-11.66323 1.446519,-12.09164 0.270151,-0.10367 7.445617,-0.35259 15.945623,-0.55276 8.500018,-0.20018 15.509705,-0.41529 15.577116,-0.47855 0.188168,-0.17658 4.193323,-12.344587 4.454077,-13.531772 0.304085,-1.384512 1.205143,-1.89996 3.775922,-2.160503 2.97932,-0.301949 7.030105,-1.330463 10.307975,-2.617298 7.653416,-3.004606 17.257618,-11.873815 24.180088,-22.329886 6.65887,-10.057898 13.63119,-19.111569 18.25648,-23.70603 4.61597,-4.585208 10.52687,-8.543698 14.68592,-9.835181 2.36542,-0.734519 6.57192,-0.856894 10.75133,-0.312848 4.60682,0.599687 9.92266,3.893658 18.44904,11.432687 3.31506,2.931182 5.92433,4.728879 9.23571,6.364429 4.27028,2.109162 7.55891,2.828127 12.95662,2.830982 l 4.3402,0.002 6.4e-4,-3.848855 6.5e-4,-3.848857 -2.04791,0.115793 c -5.82772,0.328385 -14.47206,-3.369097 -21.06314,-9.008599 -7.35857,-6.296176 -14.5501,-10.847179 -19.14576,-12.11724 -1.51916,-0.419838 -4.28154,-0.631557 -7.06433,-0.633372 z m -4.07213,13.61878 c -0.18016,0 -0.32757,0.147403 -0.32757,0.327563 0,0.180158 0.14741,0.327561 0.32757,0.327561 0.18016,0 0.32756,-0.147403 0.32756,-0.327561 0,-0.18016 -0.1474,-0.327563 -0.32756,-0.327563 z m 16.54188,2.620497 c -0.27024,0 -0.49134,0.147403 -0.49134,0.327562 0,0.180159 0.2211,0.327563 0.49134,0.327563 0.27023,0 0.49135,-0.147404 0.49135,-0.327563 0,-0.180159 -0.22112,-0.327562 -0.49135,-0.327562 z m -12.28358,3.930746 c -0.18016,0 -0.32756,0.147402 -0.32756,0.327562 0,0.180159 0.1474,0.327563 0.32756,0.327563 0.18016,0 0.32756,-0.147404 0.32756,-0.327563 0,-0.18016 -0.1474,-0.327562 -0.32756,-0.327562 z m -10.5466,0.04607 c -0.0843,0.04373 -0.17901,0.138141 -0.27575,0.291096 -0.38735,0.612497 -0.3957,0.973089 -0.0224,0.973089 0.16088,0 0.38541,-0.242661 0.49901,-0.538686 0.20568,-0.535971 0.0519,-0.85669 -0.20088,-0.725499 z m 1.47083,1.387021 c -0.0594,0.02618 -0.0959,0.09014 -0.0959,0.185534 0,0.190791 0.1474,0.346755 0.32756,0.346755 0.18015,0 0.32755,-0.06515 0.32755,-0.144589 0,-0.07944 -0.1474,-0.235411 -0.32755,-0.346755 -0.0901,-0.05567 -0.17223,-0.06713 -0.2316,-0.04094 z m 3.17965,0.204727 c -0.18015,0 -0.32755,0.147402 -0.32755,0.327562 0,0.180158 0.1474,0.327561 0.32755,0.327561 0.18016,0 0.32756,-0.147403 0.32756,-0.327561 0,-0.18016 -0.1474,-0.327562 -0.32756,-0.327562 z m -3.69979,1.317286 c -0.22926,-0.01784 -0.49289,0.0361 -0.63209,0.175297 -0.10052,0.100515 -0.10226,0.491002 -0.004,0.867527 0.17169,0.656543 0.19688,0.660236 0.6193,0.08253 0.24227,-0.331312 0.4408,-0.721801 0.4408,-0.867527 0,-0.15003 -0.19492,-0.239985 -0.42417,-0.257827 z m -10.20241,0.320524 c -0.0795,0 -0.23541,0.147403 -0.34676,0.327563 -0.11129,0.180159 -0.0468,0.327561 0.14396,0.327561 0.1908,0 0.34739,-0.147402 0.34739,-0.327561 0,-0.18016 -0.0651,-0.327563 -0.14459,-0.327563 z m 3.86549,0.779239 c -0.38656,-0.03677 -1.20607,0.222084 -1.57575,0.567476 -0.36704,0.342927 -0.0204,0.370933 1.04859,0.08445 0.40535,-0.108624 0.73701,-0.337328 0.73701,-0.508616 0,-0.08582 -0.081,-0.13105 -0.20985,-0.14331 z m 22.99461,0.203447 c -0.0795,0 -0.2354,0.147404 -0.34675,0.327563 -0.1113,0.18016 -0.0468,0.327562 0.14394,0.327562 0.1908,0 0.3474,-0.147402 0.3474,-0.327562 0,-0.180159 -0.0651,-0.327563 -0.14459,-0.327563 z m 8.65097,1.156065 c -0.18053,-0.04171 -0.38442,-0.0028 -0.47791,0.148426 -0.11315,0.183099 0.0236,0.33332 0.30453,0.33332 0.28087,0 0.51117,-0.06515 0.51117,-0.144588 0,-0.172866 -0.15726,-0.295445 -0.33779,-0.337158 z m -18.66081,0.154185 c -0.18016,0 -0.32756,0.147402 -0.32756,0.327561 0,0.180158 0.1474,0.327562 0.32756,0.327562 0.18016,0 0.32756,-0.147404 0.32756,-0.327562 0,-0.180159 -0.1474,-0.327561 -0.32756,-0.327561 z m 20.07726,0.122837 c -0.0594,0.02618 -0.0959,0.09014 -0.0959,0.185532 0,0.190792 0.14742,0.346755 0.32757,0.346755 0.18016,0 0.32756,-0.06515 0.32756,-0.144587 0,-0.07944 -0.1474,-0.235411 -0.32756,-0.346756 -0.0901,-0.05567 -0.17223,-0.06713 -0.23159,-0.04094 z m 1.29809,0.66664 c -0.0823,0.08233 -0.0521,0.306874 0.0666,0.49902 0.26134,0.422843 1.1599,0.466977 1.1599,0.05694 0,-0.332046 -0.99797,-0.784427 -1.22644,-0.55596 z m -34.81564,0.03902 c -0.18051,-0.04171 -0.38441,-0.0028 -0.4779,0.148426 -0.11316,0.183099 0.0236,0.33332 0.30453,0.33332 0.28087,0 0.51118,-0.06513 0.51118,-0.144588 0,-0.172866 -0.15728,-0.295445 -0.33781,-0.337158 z m 3.05427,0.277021 c -0.0594,0.02618 -0.0959,0.09014 -0.0959,0.185532 0,0.190792 0.14741,0.346755 0.32757,0.346755 0.18015,0 0.32755,-0.06515 0.32755,-0.144587 0,-0.07944 -0.1474,-0.235412 -0.32755,-0.346756 -0.0901,-0.05567 -0.17224,-0.06713 -0.2316,-0.04094 z m 9.06554,0.05054 c -0.18053,-0.04171 -0.38442,-0.0028 -0.47792,0.148426 -0.11315,0.183097 0.0237,0.33332 0.30453,0.33332 0.28088,0 0.51119,-0.06515 0.51119,-0.144587 0,-0.172867 -0.15727,-0.295446 -0.3378,-0.337159 z m 17.56296,1.008277 c -0.11873,0.02277 -0.19194,0.07766 -0.19194,0.159303 0,0.163293 0.29482,0.296852 0.65513,0.296852 0.36032,0 0.65513,-0.05697 0.65513,-0.126033 0,-0.06907 -0.29481,-0.202629 -0.65513,-0.296854 -0.18016,-0.04711 -0.34445,-0.05603 -0.46319,-0.03327 z m -3.12079,1.11128 c -0.1908,0 -0.34676,0.147402 -0.34676,0.327562 0,0.180159 0.0645,0.327563 0.14394,0.327563 0.0795,0 0.23605,-0.147404 0.34739,-0.327563 0.1113,-0.18016 0.0462,-0.327562 -0.14457,-0.327562 z m 9.46027,0.982687 c -0.1908,0 -0.2553,0.147402 -0.14395,0.327561 0.1113,0.18016 0.2673,0.327563 0.34675,0.327563 0.0795,0 0.14459,-0.147403 0.14459,-0.327563 0,-0.180159 -0.1566,-0.327561 -0.34739,-0.327561 z m -44.66553,0.655124 c -0.28525,0 -0.51821,0.232962 -0.51821,0.518214 0,0.578451 0.70473,0.478139 0.90719,-0.129235 0.0713,-0.213939 -0.10375,-0.388979 -0.38898,-0.388979 z m 49.27123,0 c -0.18015,0 -0.32757,0.221105 -0.32757,0.491343 0,0.270239 0.14742,0.491344 0.32757,0.491344 0.18016,0 0.32756,-0.221105 0.32756,-0.491344 0,-0.270238 -0.1474,-0.491343 -0.32756,-0.491343 z m 13.44925,0.655124 c -0.1908,0 -0.34676,0.147403 -0.34676,0.327563 0,0.180159 0.0645,0.327561 0.14394,0.327561 0.0795,0 0.23605,-0.147402 0.34739,-0.327561 0.1113,-0.18016 0.0462,-0.327563 -0.14457,-0.327563 z m -59.50436,1.204047 c -0.68361,0.262324 -0.55465,0.761326 0.19641,0.761326 0.36033,0 0.65513,-0.123048 0.65513,-0.273182 0,-0.461534 -0.36958,-0.673092 -0.85154,-0.488144 z m -6.17186,0.106198 c -0.0795,0 -0.23542,0.147403 -0.34676,0.327562 -0.11129,0.18016 -0.0468,0.327562 0.14395,0.327562 0.19079,0 0.3474,-0.147402 0.3474,-0.327562 0,-0.180159 -0.0651,-0.327562 -0.14459,-0.327562 z m 28.47871,0.52973 c -3.48758,-0.01881 -4.73261,0.111386 -6.87881,0.72038 -5.50477,1.562013 -9.86996,4.314367 -15.68075,9.887003 -4.82609,4.628276 -7.84765,8.432747 -14.04871,17.688355 -3.07793,4.594059 -6.40631,9.458358 -7.39637,10.809551 -6.149919,8.393183 -12.484387,14.943483 -17.90972,18.519403 -5.451493,3.59318 -8.263109,5.06781 -14.710227,7.71755 -1.06691,0.4385 -1.995278,0.96425 -2.063258,1.16822 -0.274979,0.82493 6.016575,2.48027 8.455197,2.22448 0.827166,-0.0868 2.372054,-0.3839 3.433009,-0.66024 8.951477,-2.33156 18.241639,-10.24553 26.995089,-22.99588 3.17824,-4.62947 13.6877,-18.832427 17.06778,-23.066262 5.55139,-6.953564 10.18495,-10.566466 16.08124,-12.539489 3.08028,-1.030727 3.83952,-1.158623 6.87369,-1.158623 3.93354,0 6.4042,0.545998 9.18966,2.03063 1.06029,0.565134 5.27347,3.810564 9.36239,7.212124 13.10265,10.900093 16.53597,12.642154 25.53257,12.955978 l 4.3402,0.150987 v -3.618538 c 0,-4.094399 0.23523,-3.779306 -3.10864,-4.161064 -2.38145,-0.27188 -6.92474,-1.55262 -9.23059,-2.601943 -2.35989,-1.073908 -5.02087,-2.917949 -10.97781,-7.606863 C 160.8214,61.798565 157.81998,60.29625 149.6345,60.252103 Z m 24.82691,1.558479 c -0.0594,0.02618 -0.0959,0.09014 -0.0959,0.185533 0,0.190791 0.1474,0.346755 0.32756,0.346755 0.18016,0 0.32756,-0.06515 0.32756,-0.144587 0,-0.07944 -0.1474,-0.235412 -0.32756,-0.346756 -0.0901,-0.05568 -0.17222,-0.06713 -0.2316,-0.04094 z m 3.19885,0.204726 c -0.19079,0 -0.34675,0.147402 -0.34675,0.327562 0,0.180159 0.0645,0.327563 0.14395,0.327563 0.0795,0 0.23605,-0.147404 0.34739,-0.327563 0.1113,-0.18016 0.0462,-0.327562 -0.14459,-0.327562 z m -1.16566,0.327562 c -0.2915,0 -0.43892,0.147405 -0.32757,0.327563 0.1113,0.180159 0.25876,0.327561 0.32757,0.327561 0.0688,0 0.21623,-0.147402 0.32756,-0.327561 0.1113,-0.180158 -0.036,-0.327563 -0.32756,-0.327563 z m 4.09453,0 c -0.18016,0 -0.32756,0.147405 -0.32756,0.327563 0,0.180159 0.1474,0.327561 0.32756,0.327561 0.18016,0 0.32756,-0.147402 0.32756,-0.327561 0,-0.180158 -0.1474,-0.327563 -0.32756,-0.327563 z m -13.43005,0.327563 c -0.18016,0 -0.32756,0.221104 -0.32756,0.491343 0,0.27024 0.1474,0.491343 0.32756,0.491343 0.18015,0 0.32757,-0.221103 0.32757,-0.491343 0,-0.270239 -0.14742,-0.491343 -0.32757,-0.491343 z m -45.67573,0.655123 c -0.0795,0 -0.23541,0.147405 -0.34676,0.327563 -0.1113,0.180159 -0.0468,0.327562 0.14396,0.327562 0.19079,0 0.34739,-0.147403 0.34739,-0.327562 0,-0.180158 -0.0651,-0.327563 -0.14459,-0.327563 z m 57.87102,0.494542 c -0.0879,0.06333 -0.0724,0.228116 0.0781,0.471512 0.12058,0.195083 0.3722,0.260125 0.55915,0.144587 0.22007,-0.136018 0.18633,-0.3045 -0.0953,-0.478547 -0.26282,-0.162438 -0.45396,-0.200873 -0.54188,-0.137552 z m 8.90175,0.36339 c -0.0852,0.05104 -0.13306,0.152666 -0.13306,0.298772 0,0.529795 0.51131,0.649945 0.79714,0.187453 0.0997,-0.161282 -0.0385,-0.377804 -0.30772,-0.481106 -0.14865,-0.05705 -0.27115,-0.05616 -0.35636,-0.0051 z m -66.44521,0.779879 c -0.0795,0 -0.2354,0.147403 -0.34675,0.327562 -0.1113,0.180159 -0.0468,0.327563 0.14395,0.327563 0.19079,0 0.34739,-0.147404 0.34739,-0.327563 0,-0.180159 -0.0651,-0.327562 -0.14459,-0.327562 z M 183.026,66.27362 c -0.28087,0 -0.41906,0.147405 -0.30772,0.327563 0.1113,0.18016 0.34102,0.327562 0.51054,0.327562 0.16953,0 0.30837,-0.147402 0.30837,-0.327562 0,-0.180158 -0.23031,-0.327563 -0.51119,-0.327563 z m 7.90053,0.327563 c -0.0795,0 -0.23541,0.147403 -0.34676,0.327562 -0.1113,0.180159 -0.0468,0.327562 0.14395,0.327562 0.19079,0 0.3474,-0.147403 0.3474,-0.327562 0,-0.180159 -0.0651,-0.327562 -0.14459,-0.327562 z m -2.59299,0.122194 c -0.0912,0.0068 -0.19306,0.05616 -0.2847,0.147786 -0.18016,0.180159 -0.21861,0.50401 -0.0857,0.719101 0.18362,0.297124 0.30536,0.288028 0.5067,-0.03775 0.14575,-0.235831 0.18433,-0.559043 0.0857,-0.718461 -0.05,-0.08108 -0.13075,-0.117465 -0.222,-0.110679 z m 3.02612,1.843177 c -0.18016,0 -0.23611,0.147402 -0.12476,0.327561 0.1113,0.180159 0.34957,0.327562 0.52973,0.327562 0.18017,0 0.23672,-0.147403 0.12539,-0.327562 -0.1113,-0.180159 -0.35021,-0.327561 -0.53036,-0.327561 z m -69.09258,0.01343 c -0.16849,-0.04755 -0.31158,0.0275 -0.31158,0.259106 0,0.346403 0.35789,0.710146 0.69928,0.710146 0.14448,0 0.17789,-0.221105 0.0742,-0.491344 -0.0997,-0.259753 -0.29343,-0.430349 -0.4619,-0.477908 z m 57.0118,0.641689 c -0.18015,0 -0.32757,0.147403 -0.32757,0.327563 0,0.180159 0.14742,0.327561 0.32757,0.327561 0.18016,0 0.32756,-0.147402 0.32756,-0.327561 0,-0.18016 -0.1474,-0.327563 -0.32756,-0.327563 z m -21.27235,4.58587 c -0.19079,0 -0.34675,0.147402 -0.34675,0.327562 0,0.180158 0.0645,0.327563 0.14395,0.327563 0.0795,0 0.23605,-0.147405 0.34739,-0.327563 0.1113,-0.18016 0.0462,-0.327562 -0.14459,-0.327562 z m 29.13384,0 c -0.18015,0 -0.32757,0.147402 -0.32757,0.327562 0,0.180158 0.14742,0.327563 0.32757,0.327563 0.18016,0 0.32756,-0.147405 0.32756,-0.327563 0,-0.18016 -0.1474,-0.327562 -0.32756,-0.327562 z m 4.77396,0.327562 c -0.10016,0 0.0702,0.294807 0.37875,0.655125 0.60184,0.702904 1.07097,0.851337 1.07097,0.339077 0,-0.290745 -1.02589,-0.994202 -1.44972,-0.994202 z m -5.98824,1.433085 c -0.0594,0.02618 -0.096,0.09014 -0.096,0.185533 0,0.190791 0.14742,0.346755 0.32757,0.346755 0.18016,0 0.32756,-0.06513 0.32756,-0.144587 0,-0.07944 -0.1474,-0.235413 -0.32756,-0.346756 -0.0901,-0.05568 -0.17223,-0.06713 -0.2316,-0.04094 z m -29.91436,0.705666 c -0.18053,-0.04171 -0.38442,-0.0028 -0.47791,0.148427 -0.11315,0.183098 0.0237,0.333319 0.30453,0.333319 0.28088,0 0.51118,-0.06513 0.51118,-0.144588 0,-0.172866 -0.15727,-0.295445 -0.3378,-0.337158 z m -0.87649,1.587269 c -0.0594,0.02618 -0.096,0.09014 -0.096,0.185534 0,0.190791 0.1474,0.346755 0.32756,0.346755 0.18016,0 0.32757,-0.06515 0.32757,-0.144589 0,-0.07944 -0.14741,-0.23541 -0.32757,-0.346755 -0.0901,-0.05567 -0.17222,-0.06713 -0.2316,-0.04094 z m -2.74333,0.204726 c -0.53527,0 -0.31831,0.602441 0.27254,0.756848 0.94363,0.246594 1.06459,0.238553 1.06459,-0.06718 0,-0.292569 -0.77034,-0.689672 -1.33713,-0.689673 z m 36.6748,0.655124 c -0.18016,0 -0.2361,0.147403 -0.12475,0.327562 0.1113,0.180158 0.34958,0.327563 0.52974,0.327563 0.18016,0 0.23673,-0.147405 0.12538,-0.327563 -0.11129,-0.180159 -0.35021,-0.327562 -0.53037,-0.327562 z m -38.6133,1.637811 c -0.18016,0 -0.32756,0.147403 -0.32756,0.327562 0,0.18016 0.1474,0.327562 0.32756,0.327562 0.18015,0 0.32757,-0.147402 0.32757,-0.327562 0,-0.180159 -0.14742,-0.327562 -0.32757,-0.327562 z m 10.46216,0.655124 c -0.1908,0 -0.2553,0.147403 -0.14395,0.327563 0.1113,0.180159 0.2673,0.327562 0.34675,0.327562 0.0795,0 0.14459,-0.147403 0.14459,-0.327562 0,-0.18016 -0.1566,-0.327563 -0.34739,-0.327563 z m -21.27171,0.772843 c 0,0.08598 -0.0896,0.389343 -0.19897,0.674316 -0.10932,0.284974 -0.0515,0.518214 0.1286,0.518214 0.18015,0 0.41033,-0.216637 0.51181,-0.481106 0.10152,-0.264469 0.0437,-0.567836 -0.12859,-0.674318 -0.1723,-0.106483 -0.31285,-0.123085 -0.31285,-0.0371 z m 14.10948,0.600104 c -0.19367,-0.06456 -0.35187,0.12838 -0.35187,0.428645 0,0.300265 0.1582,0.493203 0.35187,0.428646 0.19368,-0.06455 0.35187,-0.257494 0.35187,-0.428646 0,-0.171151 -0.15819,-0.364088 -0.35187,-0.428645 z m 5.21669,0.592426 c -0.36032,0 -0.65513,0.147403 -0.65513,0.327563 0,0.180159 0.29481,0.327561 0.65513,0.327561 0.36031,0 0.65512,-0.147402 0.65512,-0.327561 0,-0.18016 -0.29481,-0.327563 -0.65512,-0.327563 z m -2.34413,0.195131 c -0.33877,0.209372 -0.0467,0.787555 0.39794,0.787555 0.16953,0 0.30837,-0.123048 0.30837,-0.273181 0,-0.42651 -0.38954,-0.710142 -0.70631,-0.514374 z m -48.44784,0.132432 c -0.1908,0 -0.2553,0.147402 -0.14395,0.327561 0.1113,0.18016 0.2673,0.327562 0.34676,0.327562 0.0795,0 0.14459,-0.147402 0.14459,-0.327562 0,-0.180159 -0.15661,-0.327561 -0.3474,-0.327561 z m 53.40223,0.828502 c -0.18053,-0.04171 -0.38442,-0.0028 -0.47792,0.148426 -0.11315,0.183097 0.0237,0.33332 0.30453,0.33332 0.28088,0 0.51119,-0.06515 0.51119,-0.144588 0,-0.172867 -0.15727,-0.295445 -0.3378,-0.337158 z m -9.14231,0.809308 c -0.19079,0 -0.34676,0.147403 -0.34676,0.327563 0,0.180158 0.0645,0.327561 0.14395,0.327561 0.0795,0 0.23604,-0.147403 0.34739,-0.327561 0.1113,-0.18016 0.0462,-0.327563 -0.14458,-0.327563 z m 4.67224,0.06653 c -0.0676,-0.0085 -0.1056,0.03812 -0.1056,0.140749 0,0.437223 0.38724,0.824474 0.60585,0.605863 0.0931,-0.09309 -0.005,-0.343411 -0.2188,-0.5566 -0.11748,-0.117526 -0.21396,-0.181452 -0.28149,-0.190012 z m 6.54164,0.05629 c -0.0593,0.02618 -0.0959,0.0895 -0.0959,0.184893 0,0.190792 0.1474,0.347395 0.32756,0.347395 0.18016,0 0.32756,-0.06515 0.32756,-0.144588 0,-0.07945 -0.1474,-0.23541 -0.32756,-0.346755 -0.0901,-0.05567 -0.17222,-0.06713 -0.2316,-0.04094 z m -4.85713,0.04415 c -0.0422,-0.04295 -0.1497,0.0225 -0.33844,0.179135 -0.25408,0.210869 -0.3815,0.513933 -0.28277,0.673678 0.26725,0.432425 0.37418,0.360815 0.56875,-0.383222 0.0719,-0.275295 0.0947,-0.426644 0.0525,-0.469591 z m -50.64802,0.02815 c -0.33878,0.209372 -0.0467,0.787556 0.39794,0.787556 0.16952,0 0.30837,-0.123048 0.30837,-0.273181 0,-0.42651 -0.38955,-0.710142 -0.70631,-0.514375 z m 39.35864,0.132433 c -0.18016,0 -0.32756,0.147402 -0.32756,0.327561 0,0.18016 0.1474,0.327562 0.32756,0.327562 0.18016,0 0.32757,-0.147402 0.32757,-0.327562 0,-0.180159 -0.14741,-0.327561 -0.32757,-0.327561 z m 6.97477,0.122837 c -0.0594,0.02618 -0.0959,0.0895 -0.0959,0.184892 0,0.190792 0.14741,0.347395 0.32757,0.347395 0.18016,0 0.32756,-0.06513 0.32756,-0.144587 0,-0.07944 -0.1474,-0.235411 -0.32756,-0.346756 -0.0901,-0.05567 -0.17224,-0.06713 -0.2316,-0.04094 z m -5.17766,0.03262 c -0.055,-0.02295 -0.16068,-0.0093 -0.30645,0.0467 -0.56746,0.21776 -0.67142,0.452956 -0.20024,0.452956 0.16952,0 0.39855,-0.145627 0.50861,-0.323722 0.0573,-0.09284 0.053,-0.152981 -0.002,-0.175938 z m -5.3811,1.154785 c -0.16953,0 -0.3992,0.147402 -0.51054,0.327562 -0.1113,0.180159 0.0269,0.327563 0.30773,0.327563 0.28087,0 0.51118,-0.147404 0.51118,-0.327563 0,-0.18016 -0.13884,-0.327562 -0.30837,-0.327562 z m -2.6205,0.327562 c -0.19079,0 -0.34675,0.147403 -0.34675,0.327563 0,0.180158 0.0645,0.327561 0.14395,0.327561 0.0795,0 0.23604,-0.147403 0.34739,-0.327561 0.1113,-0.18016 0.0462,-0.327563 -0.14459,-0.327563 z m 17.99672,0.327563 c -0.18015,0 -0.32755,0.147402 -0.32755,0.327561 0,0.18016 0.1474,0.327562 0.32755,0.327562 0.18016,0 0.32757,-0.147402 0.32757,-0.327562 0,-0.180159 -0.14741,-0.327561 -0.32757,-0.327561 z m -19.65372,0.327561 c -0.36032,0 -0.65512,0.147403 -0.65512,0.327562 0,0.18016 0.2948,0.327563 0.65512,0.327563 0.36031,0 0.65512,-0.147403 0.65512,-0.327563 0,-0.180159 -0.29481,-0.327562 -0.65512,-0.327562 z m 28.924,0.148427 c -0.11044,0.08364 -0.0129,0.386199 0.39089,0.832341 0.55486,0.613115 1.14839,0.867985 1.14839,0.493262 0,-0.09008 -0.30731,-0.471084 -0.68264,-0.846415 -0.42787,-0.427872 -0.74621,-0.562833 -0.85664,-0.479188 z m -24.69897,0.160582 c -0.20493,0.02125 -0.30853,0.38565 -0.10362,0.717182 0.20637,0.333923 0.28378,0.334738 0.39473,0.0019 0.0759,-0.227584 0.0487,-0.502772 -0.0602,-0.611619 v -6.4e-4 c -0.0832,-0.08324 -0.16266,-0.113923 -0.23097,-0.106842 z m -40.91199,0.01856 c -0.18017,0 -0.32756,0.147404 -0.32756,0.327563 0,0.180158 0.14739,0.327562 0.32756,0.327562 0.18016,0 0.32756,-0.147404 0.32756,-0.327562 0,-0.180159 -0.1474,-0.327563 -0.32756,-0.327563 z m 62.70832,1.637811 c -0.28087,0 -0.41909,0.147403 -0.30774,0.327562 0.1113,0.180159 0.34102,0.327563 0.51054,0.327563 0.16952,0 0.30837,-0.147404 0.30837,-0.327563 0,-0.180159 -0.2303,-0.327562 -0.51117,-0.327562 z m -68.296715,0.327564 c -0.190781,0 -0.255294,0.147405 -0.143946,0.327563 0.111299,0.180159 0.267303,0.327562 0.34676,0.327562 0.07948,0 0.14459,-0.147403 0.14459,-0.327562 0,-0.180158 -0.156611,-0.327563 -0.347404,-0.327563 z m 72.507035,0.777961 c -0.0594,0.02618 -0.0959,0.09014 -0.0959,0.185533 0,0.190792 0.1474,0.346755 0.32756,0.346755 0.18016,0 0.32757,-0.06513 0.32757,-0.144588 0,-0.07944 -0.14741,-0.23541 -0.32757,-0.346755 -0.0901,-0.05567 -0.17222,-0.06713 -0.2316,-0.04094 z m 1.17526,0.532288 c -0.18016,0 -0.23609,0.147403 -0.12476,0.327562 0.1113,0.180159 0.34957,0.327562 0.52973,0.327562 0.18016,0 0.23675,-0.147403 0.1254,-0.327562 -0.1113,-0.180159 -0.35021,-0.327562 -0.53037,-0.327562 z m -2.03063,1.168859 c -0.83631,0.32092 -0.6586,0.750448 0.26806,0.648727 0.45039,-0.04944 0.81891,0.03719 0.81891,0.19257 0,0.155386 0.17966,0.282779 0.39985,0.282779 0.22795,0 0.11291,-0.287635 -0.26742,-0.66792 -0.41093,-0.41093 -0.88016,-0.586337 -1.2194,-0.456156 z m -36.29414,0.14139 c -0.18016,0 -0.23611,0.147402 -0.12476,0.327561 0.1113,0.18016 0.34957,0.327563 0.52973,0.327563 0.18016,0 0.23675,-0.147403 0.1254,-0.327563 -0.1113,-0.180159 -0.35021,-0.327561 -0.53037,-0.327561 z m -33.276347,0.122837 c -0.05938,0.02618 -0.09597,0.09014 -0.09597,0.185534 0,0.190791 0.147412,0.346754 0.32757,0.346754 0.180159,0 0.327557,-0.06513 0.327557,-0.144588 0,-0.07944 -0.147398,-0.23541 -0.327557,-0.346755 -0.09008,-0.05567 -0.172234,-0.06713 -0.231598,-0.04094 z m 72.150677,0.204725 c -0.0795,0 -0.23542,0.147404 -0.34676,0.327563 -0.1113,0.18016 -0.0468,0.327562 0.14396,0.327562 0.19079,0 0.34739,-0.147402 0.34739,-0.327562 0,-0.180159 -0.0651,-0.327563 -0.14459,-0.327563 z m -76.160112,0.0071 c -0.334008,-0.0012 -0.69815,0.09706 -0.820826,0.295574 -0.10288,0.166525 0.07218,0.361746 0.38962,0.433763 0.681301,0.154546 1.069052,-4.19e-4 1.069052,-0.428005 0,-0.198971 -0.30385,-0.300084 -0.637846,-0.301332 z m 32.213052,0.22264 c -0.24444,0.101296 -0.4568,0.279858 -0.4568,0.460634 0,0.374276 0.88772,0.38232 1.11767,0.01028 0.0958,-0.155031 0.0906,-0.366156 -0.0124,-0.468951 -0.1278,-0.127811 -0.40429,-0.103215 -0.64871,-0.0019 z m 5.62229,0.425447 c -0.0795,0 -0.23541,0.147402 -0.34676,0.327561 -0.1113,0.18016 -0.0468,0.327563 0.14396,0.327563 0.19079,0 0.34739,-0.147403 0.34739,-0.327563 0,-0.180159 -0.0651,-0.327561 -0.14459,-0.327561 z m 41.05658,0.636571 c -0.20493,0.02124 -0.30853,0.38565 -0.10362,0.717181 0.20638,0.333923 0.28378,0.334739 0.39473,0.002 0.0759,-0.227584 0.0487,-0.503414 -0.0602,-0.61226 -0.0832,-0.08324 -0.16266,-0.113924 -0.23097,-0.106842 z m -46.13379,0.673677 c -0.19079,0 -0.34676,0.147403 -0.34676,0.327563 0,0.180159 0.0645,0.327562 0.14394,0.327562 0.0795,0 0.23607,-0.147403 0.34741,-0.327562 0.1113,-0.18016 0.0462,-0.327563 -0.14459,-0.327563 z m 2.04214,0.122837 c -0.0594,0.02618 -0.096,0.09014 -0.096,0.185534 0,0.190792 0.1474,0.346755 0.32756,0.346755 0.18017,0 0.32756,-0.06515 0.32756,-0.144588 0,-0.07944 -0.14739,-0.235412 -0.32756,-0.346755 -0.0901,-0.05567 -0.17222,-0.06713 -0.2316,-0.04094 z m -39.730987,0.859808 c -0.180158,0 -0.327558,0.147403 -0.327558,0.327563 0,0.180159 0.1474,0.327561 0.327558,0.327561 0.180158,0 0.327571,-0.147402 0.327571,-0.327561 0,-0.18016 -0.147413,-0.327563 -0.327571,-0.327563 z m 11.647647,0.655124 c -0.0795,0 -0.2354,0.147403 -0.34675,0.327562 -0.1113,0.180159 -0.0468,0.327563 0.14395,0.327563 0.19079,0 0.34739,-0.147404 0.34739,-0.327563 0,-0.180159 -0.0651,-0.327562 -0.14459,-0.327562 z m 19.47333,1.690912 c -0.12183,0.0053 -0.25607,0.0686 -0.39091,0.203446 -0.21339,0.213379 -0.40774,0.656067 -0.43184,0.983327 -0.0634,0.86034 1.04206,0.83524 1.26801,-0.02878 0.17446,-0.667072 -0.0797,-1.1739 -0.44526,-1.157984 z m -36.015207,0.929586 c -0.190781,0 -0.34676,0.147403 -0.34676,0.327562 0,0.180159 0.0645,0.327561 0.143946,0.327561 0.07948,0 0.236043,-0.147402 0.347391,-0.327561 0.111299,-0.180159 0.04618,-0.327562 -0.144577,-0.327562 z m 95.792737,0 c -0.5923,0 -0.63347,0.381813 -0.0985,0.91679 0.52861,0.528617 0.58923,0.501887 0.58923,-0.261667 h 6.3e-4 c 0,-0.363958 -0.21837,-0.655123 -0.49134,-0.655123 z m -53.86479,0.327562 c -0.19079,0 -0.34675,0.147402 -0.34675,0.327561 0,0.18016 0.0645,0.327564 0.14395,0.327564 0.0795,0 0.23604,-0.147404 0.34739,-0.327564 0.1113,-0.180159 0.0462,-0.327561 -0.14459,-0.327561 z m 51.38823,0 c -0.19079,0 -0.25528,0.147402 -0.14395,0.327561 0.1113,0.18016 0.26732,0.327564 0.34676,0.327564 0.0795,0 0.14459,-0.147404 0.14459,-0.327564 0,-0.180159 -0.15661,-0.327561 -0.3474,-0.327561 z m -78.27775,0.173377 c -0.18053,-0.04171 -0.38442,-0.0028 -0.47792,0.148427 -0.11315,0.183098 0.0236,0.333321 0.30453,0.333321 0.28088,0 0.51119,-0.06515 0.51119,-0.144589 0,-0.172866 -0.15727,-0.295445 -0.3378,-0.337159 z m 75.97139,0.790748 c -0.20493,0.0212 -0.30855,0.38565 -0.10363,0.71719 0.20637,0.33392 0.28378,0.33473 0.39475,0.002 0.0759,-0.22759 0.0488,-0.50342 -0.0602,-0.61226 -0.0832,-0.0833 -0.16265,-0.11393 -0.23095,-0.10685 z m 7.99071,0.14139 c -0.0594,0.0262 -0.0959,0.0901 -0.0959,0.18554 0,0.19079 0.14738,0.34675 0.32755,0.34675 0.18016,0 0.32757,-0.0652 0.32757,-0.14459 0,-0.0794 -0.14741,-0.23541 -0.32757,-0.34675 -0.0901,-0.0557 -0.17222,-0.0671 -0.23159,-0.0409 z m -96.754939,1.04091 c -0.170637,0.10547 -0.223848,0.33093 -0.118355,0.50158 0.10548,0.17065 0.330925,0.22446 0.501575,0.119 0.17065,-0.10547 0.224505,-0.33157 0.119,-0.50222 -0.10548,-0.17065 -0.331569,-0.22382 -0.50222,-0.11836 z m 12.341799,0.0211 c -0.0854,-0.0509 -0.207977,-0.0504 -0.35763,0.007 -0.270237,0.1037 -0.491349,0.32022 -0.491349,0.4811 0,0.16089 0.221112,0.29238 0.491349,0.29238 0.27025,0 0.49134,-0.21652 0.49134,-0.48111 0,-0.14652 -0.0483,-0.24855 -0.13371,-0.29941 z m -14.751178,0.78052 c -0.280872,0 -0.510527,0.1474 -0.510527,0.32756 0,0.18016 0.138201,0.32756 0.307725,0.32756 0.169523,0 0.399822,-0.1474 0.51117,-0.32756 0.111299,-0.18016 -0.0275,-0.32756 -0.308368,-0.32756 z m -6.098921,0.32756 c -0.169523,0 -0.307725,0.1474 -0.307725,0.32756 0,0.18016 0.229655,0.32756 0.510527,0.32756 0.280872,0 0.419717,-0.1474 0.308368,-0.32756 -0.111298,-0.18016 -0.341646,-0.32756 -0.51117,-0.32756 z m 14.105001,0.49134 c -0.180158,0.11135 -0.327558,0.34101 -0.327558,0.51054 0,0.16952 0.1474,0.30837 0.327558,0.30837 0.180159,0 0.327571,-0.22967 0.327571,-0.51054 0,-0.28087 -0.147412,-0.41971 -0.327571,-0.30837 z m 100.234018,0.16378 c -0.18016,0 -0.32756,0.22111 -0.32756,0.49134 0,0.27024 0.1474,0.49135 0.32756,0.49135 0.18017,0 0.32757,-0.22111 0.32757,-0.49135 0,-0.27023 -0.1474,-0.49134 -0.32757,-0.49134 z m -2.23216,0.40242 c -0.23936,-0.0798 -0.31243,0.07 -0.19001,0.38898 0.22848,0.59541 0.9054,0.71944 0.70887,0.12987 -0.0713,-0.21394 -0.30479,-0.4475 -0.51886,-0.51885 z m -112.633393,0.0339 c -0.234631,0.23463 0.179081,0.87392 0.565557,0.87392 0.169523,0 0.308368,-0.13884 0.308368,-0.30837 0,-0.38647 -0.639281,-0.80019 -0.873925,-0.56555 z m 7.097614,0.2188 c -0.180158,0 -0.32757,0.1474 -0.32757,0.32756 0,0.18016 0.147412,0.32756 0.32757,0.32756 0.180159,0 0.327558,-0.1474 0.327558,-0.32756 0,-0.18016 -0.147399,-0.32756 -0.327558,-0.32756 z m 34.374189,0.32756 c -0.19079,0 -0.2553,0.1474 -0.14395,0.32756 0.1113,0.18016 0.26731,0.32757 0.34676,0.32757 0.0795,0 0.14459,-0.14741 0.14459,-0.32757 0,-0.18016 -0.1566,-0.32756 -0.3474,-0.32756 z m 67.81943,0.34612 c -0.10808,0.0101 -0.20505,0.11274 -0.33075,0.31156 -0.59772,0.94544 -0.28455,1.25861 0.66089,0.66089 0.39764,-0.2514 0.41058,-0.38724 0.0685,-0.72934 -0.17106,-0.17105 -0.29046,-0.25323 -0.39859,-0.24311 z m -115.623672,1.29169 c -0.180158,0 -0.327561,0.1474 -0.327561,0.32756 0,0.18016 0.147403,0.32756 0.327561,0.32756 0.180158,0 0.327562,-0.1474 0.327562,-0.32756 0,-0.18016 -0.147404,-0.32756 -0.327562,-0.32756 z m 120.870432,0 c -0.18016,0 -0.32756,0.22967 -0.32756,0.51054 0,0.28087 0.1474,0.41971 0.32756,0.30837 0.18016,-0.11135 0.32756,-0.34101 0.32756,-0.51054 0,-0.16953 -0.1474,-0.30837 -0.32756,-0.30837 z m -112.912979,0.12284 c -0.05936,0.0262 -0.09596,0.0901 -0.09596,0.18553 0,0.19079 0.1474,0.34676 0.327558,0.34676 0.180158,0 0.32757,-0.0651 0.32757,-0.14459 0,-0.0794 -0.147412,-0.23541 -0.32757,-0.34676 -0.09008,-0.0557 -0.172222,-0.0671 -0.231598,-0.0409 z m 13.75761,0.98268 c -0.05936,0.0262 -0.09596,0.0901 -0.09596,0.18554 0,0.19079 0.1474,0.34675 0.327558,0.34675 0.180158,0 0.32757,-0.0651 0.32757,-0.14459 0,-0.0794 -0.147412,-0.23541 -0.32757,-0.34675 -0.09008,-0.0557 -0.172222,-0.0671 -0.231598,-0.0409 z m 98.172679,0.20473 c -0.18015,0 -0.32755,0.1474 -0.32755,0.32756 0,0.18016 0.1474,0.32756 0.32755,0.32756 0.18016,0 0.32756,-0.1474 0.32756,-0.32756 0,-0.18016 -0.1474,-0.32756 -0.32756,-0.32756 z m -115.629437,0.32756 c -0.180158,0 -0.327558,0.14741 -0.327558,0.32756 0,0.18016 0.1474,0.32757 0.327558,0.32757 0.180158,0 0.327571,-0.14741 0.327571,-0.32757 0,-0.18015 -0.147413,-0.32756 -0.327571,-0.32756 z m 69.462367,2.29294 c -0.19079,0 -0.34675,0.1474 -0.34675,0.32756 0,0.18016 0.0645,0.32756 0.14395,0.32756 0.0795,0 0.23604,-0.1474 0.34739,-0.32756 0.1113,-0.18016 0.0462,-0.32756 -0.14459,-0.32756 z m -73.802562,0.66024 c -0.595976,0.004 -0.642992,0.0657 -0.245671,0.32244 0.635072,0.41041 0.982686,0.41041 0.982686,0 0,-0.18016 -0.33166,-0.3252 -0.737015,-0.32244 z m 76.403872,0.65001 c -0.18015,0 -0.32757,0.1474 -0.32757,0.32756 0,0.18016 0.14742,0.32756 0.32757,0.32756 0.18016,0 0.32756,-0.1474 0.32756,-0.32756 0,-0.18016 -0.1474,-0.32756 -0.32756,-0.32756 z m 40.59787,0 c -0.16953,0 -0.30772,0.1474 -0.30772,0.32756 0,0.18016 0.22965,0.32756 0.51052,0.32756 0.28088,0 0.41971,-0.1474 0.30837,-0.32756 -0.1113,-0.18016 -0.34164,-0.32756 -0.51117,-0.32756 z m -43.36296,0.65512 c -0.0795,0 -0.23541,0.1474 -0.34676,0.32756 -0.1113,0.18016 -0.0468,0.32756 0.14396,0.32756 0.19078,0 0.34739,-0.1474 0.34739,-0.32756 0,-0.18016 -0.0651,-0.32756 -0.14459,-0.32756 z m -70.425863,0.32756 c -0.280872,0 -0.510526,0.1474 -0.510526,0.32756 0,0.18016 0.138201,0.32757 0.307725,0.32757 0.169523,0 0.399821,-0.14741 0.51117,-0.32757 0.111299,-0.18016 -0.0275,-0.32756 -0.308369,-0.32756 z m 9.643896,0.32756 c -0.180158,0 -0.327558,0.14741 -0.327558,0.32757 0,0.18015 0.1474,0.32756 0.327558,0.32756 0.180158,0 0.327558,-0.14741 0.327558,-0.32756 0,-0.18016 -0.1474,-0.32757 -0.327558,-0.32757 z m 68.460497,0.32757 c -0.18016,0 -0.32757,0.1474 -0.32757,0.32756 0,0.18016 0.14741,0.32756 0.32757,0.32756 0.18015,0 0.32755,-0.1474 0.32755,-0.32756 0,-0.18016 -0.1474,-0.32756 -0.32755,-0.32756 z m -10.34061,1.00124 c -0.24505,-0.0793 -0.46894,0.0505 -0.46894,0.45615 0,0.3593 0.67064,1.01294 1.18292,1.15286 0.0201,0.005 -0.0342,-0.35827 -0.12021,-0.80866 -0.0827,-0.4324 -0.34866,-0.72108 -0.59371,-0.80035 z m 8.70279,0.96412 c -0.18016,0 -0.32756,0.1474 -0.32756,0.32758 0,0.18015 0.1474,0.32755 0.32756,0.32755 0.18016,0 0.32756,-0.1474 0.32756,-0.32755 0,-0.18018 -0.1474,-0.32758 -0.32756,-0.32758 z m -11.8255,0.30902 c -0.20494,0.0213 -0.30854,0.38564 -0.10362,0.71718 0.20638,0.33392 0.28379,0.33473 0.39474,0.002 0.0759,-0.22759 0.0487,-0.50277 -0.0602,-0.61161 v -6.4e-4 c -0.0832,-0.0832 -0.16264,-0.1139 -0.23095,-0.10685 z m -1.40814,0.67367 c -0.46914,0 -1.2456,1.46255 -0.93918,1.76897 0.28511,0.28511 0.32479,0.26555 1.04603,-0.50862 0.67606,-0.72566 0.63051,-1.26035 -0.10685,-1.26035 z m 5.69971,1.96537 c -0.18016,0 -0.32756,0.1474 -0.32756,0.32757 0,0.18016 0.1474,0.32756 0.32756,0.32756 0.18016,0 0.32757,-0.1474 0.32757,-0.32756 0,-0.18017 -0.14741,-0.32757 -0.32757,-0.32757 z m 11.91572,0 c -0.43526,0 -0.45744,0.0889 -0.12344,0.49135 0.22427,0.27024 0.463,0.49134 0.53102,0.49134 0.068,0 0.12411,-0.2211 0.12411,-0.49134 0,-0.27023 -0.23935,-0.49135 -0.53164,-0.49135 z m 2.49253,0.66729 c -0.3515,-0.0402 -0.65064,0.0391 -0.65064,0.2655 0,0.35761 1.39209,0.99878 1.73506,0.79907 0.14386,-0.0838 0.0894,-0.36061 -0.12157,-0.61482 -0.20761,-0.25014 -0.61136,-0.40953 -0.96286,-0.44975 z m -95.00837,0.3154 c -0.190793,0 -0.255297,0.1474 -0.143948,0.32757 0.111299,0.18016 0.267298,0.32756 0.346755,0.32756 0.07948,0 0.144588,-0.1474 0.144588,-0.32756 0,-0.18017 -0.156614,-0.32757 -0.347395,-0.32757 z m 87.47892,0.32757 c -0.18016,0 -0.32755,0.1474 -0.32755,0.32756 0,0.18016 0.14739,0.32756 0.32755,0.32756 0.18016,0 0.32757,-0.1474 0.32757,-0.32756 0,-0.18016 -0.14741,-0.32756 -0.32757,-0.32756 z m -4.43936,1.23859 c -0.25755,-0.25755 -1.78496,0.11637 -1.78496,0.43696 0,0.37257 1.54379,0.37923 1.77344,0.007 0.0958,-0.15503 0.1014,-0.35522 0.0112,-0.44464 z m 6.85321,0.10424 c -0.10647,0.0394 -0.12095,0.18307 -0.12095,0.45872 0,0.27297 0.29116,0.49134 0.65511,0.49134 0.36032,0 0.65513,-0.13149 0.65513,-0.29237 0,-0.16088 -0.23324,-0.38199 -0.51821,-0.49135 -0.36606,-0.14046 -0.56461,-0.20567 -0.67113,-0.16634 z m -92.638022,0.62251 c -0.07948,0 -0.235407,0.1474 -0.346755,0.32755 -0.111299,0.18016 -0.04681,0.32756 0.143948,0.32756 0.19078,0 0.347395,-0.1474 0.347395,-0.32756 0,-0.18015 -0.06514,-0.32755 -0.144588,-0.32755 z m 103.750182,0.12281 c -0.0594,0.0261 -0.0959,0.0901 -0.0959,0.18554 0,0.1908 0.1474,0.34675 0.32756,0.34675 0.18015,0 0.32757,-0.0651 0.32757,-0.14459 0,-0.0795 -0.14742,-0.23541 -0.32757,-0.34675 -0.0901,-0.0557 -0.17223,-0.0671 -0.2316,-0.041 z m -107.208778,0.36851 c -0.180158,-0.1113 -0.327562,0.0275 -0.327562,0.30837 0,0.28087 0.147404,0.51054 0.327562,0.51054 0.180158,0 0.327562,-0.13885 0.327562,-0.30837 0,-0.16952 -0.147404,-0.39919 -0.327562,-0.51054 z m 6.878805,0.16378 c -0.180158,0 -0.327562,0.14741 -0.327562,0.32757 0,0.18016 0.147404,0.32756 0.327562,0.32756 0.180158,0 0.327562,-0.1474 0.327562,-0.32756 0,-0.18016 -0.147404,-0.32757 -0.327562,-0.32757 z m 77.309783,0.16699 c -0.1831,-0.11316 -0.33268,0.0243 -0.33268,0.30516 0,0.57537 0.19647,0.65971 0.47727,0.20537 0.10362,-0.16771 0.0385,-0.39738 -0.14459,-0.51053 z m -32.43376,0.16058 c -0.18016,0 -0.32757,0.1474 -0.32757,0.32756 0,0.18016 0.14741,0.32756 0.32757,0.32756 0.18015,0 0.32755,-0.1474 0.32755,-0.32756 0,-0.18016 -0.1474,-0.32756 -0.32755,-0.32756 z m 28.98924,0.32756 c -0.27025,0 -0.49134,0.21652 -0.49134,0.48111 0,0.29303 0.19203,0.40722 0.49134,0.29237 0.27024,-0.10374 0.49135,-0.32023 0.49135,-0.48111 0,-0.16088 -0.22111,-0.29237 -0.49135,-0.29237 z m 5.73234,0 c -0.18016,0 -0.32756,0.2211 -0.32756,0.49134 0,0.27023 0.1474,0.49135 0.32756,0.49135 0.18016,0 0.32756,-0.22112 0.32756,-0.49135 0,-0.27024 -0.1474,-0.49134 -0.32756,-0.49134 z m -91.717402,0.32756 c -0.180158,0 -0.327563,0.14741 -0.327563,0.32757 0,0.18016 0.147405,0.32756 0.327563,0.32756 0.180171,0 0.327562,-0.1474 0.327562,-0.32756 0,-0.18016 -0.147391,-0.32757 -0.327562,-0.32757 z m 0.978847,0.49326 c -0.17809,0.11007 -0.323724,0.33909 -0.323724,0.50862 0,0.47117 0.234561,0.36723 0.452318,-0.20025 0.111795,-0.2915 0.0571,-0.42313 -0.128594,-0.30837 z m 114.178435,0.81699 c -0.28087,0 -0.51053,0.1474 -0.51053,0.32756 0,0.18016 0.13821,0.32756 0.30773,0.32756 0.16954,0 0.39984,-0.1474 0.51117,-0.32756 0.1113,-0.18016 -0.0275,-0.32756 -0.30837,-0.32756 z m -31.30137,0.65512 c -0.18016,0 -0.32756,0.1474 -0.32756,0.32757 0,0.18016 0.1474,0.32756 0.32756,0.32756 0.18016,0 0.32756,-0.1474 0.32756,-0.32756 0,-0.18017 -0.1474,-0.32757 -0.32756,-0.32757 z m -28.47359,0.39026 c -0.19368,-0.0645 -0.35188,0.12839 -0.35188,0.42865 0,0.30027 0.1582,0.4932 0.35188,0.42864 0.19366,-0.0645 0.35187,-0.25749 0.35187,-0.42864 0,-0.17115 -0.15821,-0.3641 -0.35187,-0.42865 z m -56.817965,1.57 c -0.372115,0.0436 -0.845662,0.41403 -0.685194,0.67367 0.146756,0.23747 0.361072,0.22379 0.683914,-0.0442 0.25855,-0.21458 0.398869,-0.46098 0.312207,-0.54765 -0.07422,-0.0743 -0.186889,-0.0964 -0.310927,-0.0818 z m 81.688365,0.49646 c -0.18016,-0.1113 -0.32756,0.0275 -0.32756,0.30837 0,0.28087 0.1474,0.51054 0.32756,0.51054 0.18016,0 0.32757,-0.13885 0.32757,-0.30837 0,-0.16954 -0.14741,-0.3992 -0.32757,-0.51054 z m -75.686685,0.49134 c -0.190793,0 -0.255297,0.1474 -0.143948,0.32757 0.111299,0.18016 0.26731,0.32756 0.346755,0.32756 0.07948,0 0.144588,-0.1474 0.144588,-0.32756 0,-0.18017 -0.156614,-0.32757 -0.347395,-0.32757 z m 115.629435,0.32757 c -0.19079,0 -0.25529,0.1474 -0.14394,0.32756 0.1113,0.18016 0.2673,0.32756 0.34674,0.32756 0.0795,0 0.14459,-0.1474 0.14459,-0.32756 0,-0.18016 -0.15659,-0.32756 -0.34739,-0.32756 z m -42.47495,0.0211 c -0.1415,-0.0527 -0.32712,-0.001 -0.50287,0.17466 -0.29527,0.29527 0.1113,1.13798 0.44848,0.92957 0.16128,-0.0997 0.29366,-0.39359 0.29366,-0.6532 0,-0.24118 -0.0978,-0.39834 -0.23927,-0.45103 z m 35.38438,0.75684 c -0.0594,0.0261 -0.0959,0.0901 -0.0959,0.18553 0,0.19079 0.1474,0.34676 0.32755,0.34676 0.18016,0 0.32756,-0.0651 0.32756,-0.14459 0,-0.0795 -0.1474,-0.23541 -0.32756,-0.34676 -0.0901,-0.0557 -0.17222,-0.0671 -0.23159,-0.041 z m -104.569094,0.85985 c -0.190793,0 -0.346755,0.1474 -0.346755,0.32757 0,0.18016 0.0645,0.32756 0.143948,0.32756 0.07948,0 0.236059,-0.1474 0.347395,-0.32756 0.111299,-0.18017 0.04615,-0.32757 -0.144588,-0.32757 z m 106.091104,0 c -0.19079,0 -0.25528,0.1474 -0.14394,0.32757 0.1113,0.18016 0.26731,0.32756 0.34676,0.32756 0.0795,0 0.14459,-0.1474 0.14459,-0.32756 0,-0.18017 -0.15661,-0.32757 -0.34741,-0.32757 z m 7.06242,0.2783 c -0.17116,0 -0.36408,0.1582 -0.42864,0.35188 -0.0645,0.19367 0.12837,0.35251 0.42864,0.35251 0.30026,0 0.49257,-0.15884 0.42801,-0.35251 -0.0645,-0.19368 -0.25686,-0.35188 -0.42801,-0.35188 z m -108.617556,0.70439 c -0.163296,0 -0.296852,0.0615 -0.296852,0.13691 0,0.0754 -0.08965,0.37015 -0.198969,0.65513 -0.109318,0.28497 -0.05305,0.51821 0.125395,0.51821 0.178425,0 0.401595,-0.29481 0.495821,-0.65513 0.09421,-0.36031 0.03793,-0.65512 -0.125395,-0.65512 z m 29.150467,0.30901 c -0.204931,0.0213 -0.308529,0.38564 -0.103635,0.71718 0.206367,0.33392 0.283781,0.33474 0.394733,0.002 0.07589,-0.22758 0.04882,-0.5034 -0.06013,-0.61225 -0.08324,-0.0832 -0.162652,-0.1139 -0.230967,-0.10684 z m 29.186299,1.3288 c -0.18015,0 -0.32755,0.1474 -0.32755,0.32756 0,0.18016 0.1474,0.32757 0.32755,0.32757 0.18016,0 0.32757,-0.14741 0.32757,-0.32757 0,-0.18016 -0.14741,-0.32756 -0.32757,-0.32756 z m -55.603668,0.33268 c -0.405356,-0.002 -0.737016,0.14228 -0.737016,0.32245 0,0.41041 0.347614,0.41041 0.982687,0 0.397321,-0.25677 0.350304,-0.3184 -0.245671,-0.32245 z m 116.530228,0.32245 c -0.18017,0 -0.32756,0.1474 -0.32756,0.32756 0,0.18016 0.14739,0.32756 0.32756,0.32756 0.18016,0 0.32757,-0.1474 0.32757,-0.32756 0,-0.18016 -0.14741,-0.32756 -0.32757,-0.32756 z m -48.59819,0.0659 c -0.21704,-0.0828 -0.66643,0.16058 -0.78884,0.52781 -0.0797,0.23938 0.0699,0.31243 0.38898,0.19001 0.28529,-0.10944 0.51886,-0.34294 0.51886,-0.51884 0,-0.10771 -0.0467,-0.17136 -0.11898,-0.19898 z m 36.90193,0.057 c -0.0594,0.0263 -0.096,0.0901 -0.096,0.18555 0,0.19079 0.14741,0.34674 0.32757,0.34674 0.18016,0 0.32756,-0.0651 0.32756,-0.14459 0,-0.0795 -0.1474,-0.23541 -0.32756,-0.34674 -0.0901,-0.0557 -0.17224,-0.0671 -0.2316,-0.041 z m -82.314066,0.20473 c -0.180159,0 -0.327571,0.1474 -0.327571,0.32756 0,0.18016 0.147412,0.32757 0.327571,0.32757 0.180158,0 0.327558,-0.14741 0.327558,-0.32757 0,-0.18016 -0.1474,-0.32756 -0.327558,-0.32756 z m 84.606996,0.12282 c -0.0594,0.0262 -0.0959,0.0901 -0.0959,0.18553 0,0.19079 0.1474,0.34676 0.32756,0.34676 0.18016,0 0.32756,-0.0651 0.32756,-0.14459 0,-0.0795 -0.1474,-0.23541 -0.32756,-0.34676 -0.0901,-0.0557 -0.17222,-0.0671 -0.2316,-0.041 z m 11.51265,0.20472 c -0.28087,0 -0.41906,0.1474 -0.30772,0.32757 0.11129,0.18016 0.34101,0.32756 0.51053,0.32756 0.16954,0 0.30837,-0.1474 0.30837,-0.32756 0,-0.18017 -0.23031,-0.32757 -0.51118,-0.32757 z m -10.03223,0.10362 c -0.26131,0.10461 -0.18391,0.18197 0.19769,0.19769 0.3453,0.0142 0.53878,-0.0633 0.42993,-0.1721 -0.10882,-0.10882 -0.39117,-0.12021 -0.62762,-0.0256 z m -101.810399,0.8789 c -0.180158,0 -0.327571,0.1474 -0.327571,0.32757 0,0.18016 0.147413,0.32756 0.327571,0.32756 0.180158,0 0.327558,-0.1474 0.327558,-0.32756 0,-0.18017 -0.1474,-0.32757 -0.327558,-0.32757 z m 14.085168,0 c -0.180158,0 -0.327558,0.22111 -0.327558,0.49135 0,0.27024 0.1474,0.49134 0.327558,0.49134 0.180158,0 0.327558,-0.2211 0.327558,-0.49134 0,-0.27024 -0.1474,-0.49135 -0.327558,-0.49135 z m 91.485801,0.12281 c -0.0593,0.0261 -0.0959,0.0901 -0.0959,0.18553 0,0.1908 0.14739,0.34676 0.32756,0.34676 0.18016,0 0.32757,-0.0651 0.32757,-0.14459 0,-0.0795 -0.14741,-0.23541 -0.32757,-0.34676 -0.0901,-0.0557 -0.17222,-0.0671 -0.2316,-0.041 z m -108.0584,0.0794 c -0.08542,0.0509 -0.133072,0.1529 -0.133072,0.29942 0,0.26458 0.221106,0.4811 0.491343,0.4811 0.270238,0 0.491344,-0.13149 0.491344,-0.29238 0,-0.16088 -0.221106,-0.3774 -0.491344,-0.48111 -0.149646,-0.0574 -0.272848,-0.0579 -0.358271,-0.007 z m 9.134637,0.5758 c -0.05938,0.0262 -0.09597,0.0901 -0.09597,0.18553 0,0.19079 0.147413,0.34676 0.327571,0.34676 0.180158,0 0.327558,-0.0651 0.327558,-0.14459 0,-0.0795 -0.1474,-0.23541 -0.327558,-0.34676 -0.09008,-0.0557 -0.172235,-0.0671 -0.231599,-0.041 z m 97.700523,0.046 c -0.089,-0.0233 -0.21164,-0.0111 -0.34676,0.0404 -0.27024,0.10375 -0.49133,0.24652 -0.49133,0.31733 0,0.0708 0.22109,0.1286 0.49133,0.1286 0.27024,0 0.49135,-0.14284 0.49135,-0.31734 0,-0.0873 -0.0556,-0.14556 -0.14459,-0.1689 z m -102.054798,0.15867 c -0.180159,0 -0.327558,0.1474 -0.327558,0.32757 0,0.18015 0.147399,0.32755 0.327558,0.32755 0.180158,0 0.327558,-0.1474 0.327558,-0.32755 0,-0.18017 -0.1474,-0.32757 -0.327558,-0.32757 z m 6.307491,0.78883 c -0.227154,0.22717 0.234285,0.84898 0.63017,0.84898 0.2172,0 0.192439,-0.18835 -0.0659,-0.49966 -0.227896,-0.27459 -0.481816,-0.43176 -0.564269,-0.34932 z m 101.748997,0.19385 c -0.18016,0 -0.23611,0.1474 -0.12476,0.32757 0.1113,0.18016 0.34956,0.32756 0.52973,0.32756 0.18016,0 0.23672,-0.1474 0.12539,-0.32756 -0.1113,-0.18017 -0.3502,-0.32757 -0.53036,-0.32757 z m -102.282563,0.48751 c -0.36283,-0.0474 -0.861137,0.27761 -0.861137,0.69416 0,0.52373 0.843779,0.61834 1.146465,0.12859 h 6.44e-4 c 0.111299,-0.18017 0.114914,-0.46877 0.0083,-0.64105 -0.06736,-0.10895 -0.173361,-0.16589 -0.294292,-0.1817 z m 99.140653,0.59626 c -0.0726,0.0183 -0.0947,0.13233 -0.0947,0.34996 0,0.2923 0.2211,0.53165 0.49133,0.53165 0.27025,0 0.49135,-0.0561 0.49135,-0.12412 0,-0.068 -0.2211,-0.30673 -0.49135,-0.531 -0.2012,-0.167 -0.32412,-0.24475 -0.39665,-0.22649 z m -103.257574,0.22649 c -0.169524,0 -0.399191,0.1474 -0.510539,0.32756 -0.111299,0.18016 0.02685,0.32756 0.307725,0.32756 0.280872,0 0.511182,-0.1474 0.511182,-0.32756 0,-0.18016 -0.138845,-0.32756 -0.308368,-0.32756 z m 96.238014,0.0333 c -0.14994,0.0901 -0.24133,0.3653 -0.20665,0.78436 0.0581,0.70107 0.13324,0.75221 0.52653,0.35891 0.25231,-0.25232 0.35873,-0.62017 0.23671,-0.81763 -0.19824,-0.32076 -0.40665,-0.41575 -0.55659,-0.32564 z m -111.141453,0.45758 c -0.08872,-0.0199 -0.210878,-0.007 -0.345476,0.0448 -0.26921,0.10326 -0.406663,0.32265 -0.30517,0.48686 0.212273,0.34348 0.794594,0.0678 0.794594,-0.37618 0,-0.0819 -0.05524,-0.1355 -0.143948,-0.15547 z m 126.910503,0.49199 c -0.18016,0 -0.32757,0.1474 -0.32757,0.32756 0,0.18016 0.14741,0.32756 0.32757,0.32756 0.18016,0 0.32756,-0.1474 0.32756,-0.32756 0,-0.18016 -0.1474,-0.32756 -0.32756,-0.32756 z m 2.90902,0.32756 c -0.18015,0 -0.2361,0.1474 -0.12475,0.32756 0.1113,0.18015 0.34958,0.32757 0.52974,0.32757 0.18016,0 0.23674,-0.14742 0.12539,-0.32757 -0.1113,-0.18016 -0.35022,-0.32756 -0.53038,-0.32756 z m -105.580569,0.32756 c -0.280872,0 -0.510527,0.1474 -0.510527,0.32757 0,0.18016 0.138202,0.32756 0.307725,0.32756 0.169524,0 0.399822,-0.1474 0.51117,-0.32756 0.111299,-0.18017 -0.0275,-0.32757 -0.308368,-0.32757 z m 88.258809,0 c -0.18016,0 -0.32756,0.1474 -0.32756,0.32757 0,0.18016 0.1474,0.32756 0.32756,0.32756 0.18016,0 0.32756,-0.1474 0.32756,-0.32756 0,-0.18017 -0.1474,-0.32757 -0.32756,-0.32757 z m 20.49183,0 c -0.0795,0 -0.23543,0.1474 -0.34676,0.32757 -0.1113,0.18016 -0.0468,0.32756 0.14396,0.32756 0.19079,0 0.34739,-0.1474 0.34739,-0.32756 0,-0.18017 -0.0651,-0.32757 -0.14459,-0.32757 z m -81.09083,0.32757 c -0.18016,0 -0.32756,0.22965 -0.32756,0.51052 0,0.28088 0.1474,0.41972 0.32756,0.30837 0.18016,-0.1113 0.32757,-0.341 0.32757,-0.51052 0,-0.16954 -0.14741,-0.30837 -0.32757,-0.30837 z m -42.583075,0.49133 c -0.180158,-0.11129 -0.327562,0.0275 -0.327562,0.30837 0,0.28087 0.147404,0.51054 0.327562,0.51054 0.180159,0 0.327559,-0.13884 0.327559,-0.30837 0,-0.16952 -0.1474,-0.39919 -0.327559,-0.51054 z m 10.481994,0.49135 c -0.180159,0 -0.327571,0.1474 -0.327571,0.32756 0,0.18016 0.147412,0.32756 0.327571,0.32756 0.180158,0 0.327558,-0.1474 0.327558,-0.32756 0,-0.18016 -0.1474,-0.32756 -0.327558,-0.32756 z m 36.320361,0 c -0.18016,0 -0.2361,0.1474 -0.12475,0.32756 0.1113,0.18016 0.34958,0.32756 0.52974,0.32756 0.18017,0 0.23672,-0.1474 0.12538,-0.32756 -0.11129,-0.18016 -0.35021,-0.32756 -0.53037,-0.32756 z m 68.82709,0.16378 c -0.18016,-0.1113 -0.32757,0.0275 -0.32757,0.30837 0,0.28087 0.14741,0.51054 0.32757,0.51054 0.18016,0 0.32756,-0.13885 0.32756,-0.30837 0,-0.16953 -0.1474,-0.3992 -0.32756,-0.51054 z m -111.37114,0.16378 c -0.180159,0 -0.327558,0.22967 -0.327558,0.51054 0,0.28087 0.147399,0.4197 0.327558,0.30837 0.180158,-0.1113 0.32757,-0.34102 0.32757,-0.51054 0,-0.16952 -0.147412,-0.30837 -0.32757,-0.30837 z m 114.50217,0.65513 c -0.0795,0 -0.23543,0.1474 -0.34676,0.32756 -0.1113,0.18016 -0.0468,0.32756 0.14395,0.32756 0.1908,0 0.34739,-0.1474 0.34739,-0.32756 0,-0.18016 -0.0651,-0.32756 -0.14458,-0.32756 z m -37.1975,0.32756 c -0.18016,0 -0.32756,0.1474 -0.32756,0.32756 0,0.18015 0.1474,0.32757 0.32756,0.32757 0.18016,0 0.32756,-0.14742 0.32756,-0.32757 0,-0.18016 -0.1474,-0.32756 -0.32756,-0.32756 z m -71.408552,0.65513 c -0.180158,0 -0.327558,0.2211 -0.327558,0.49133 0,0.27024 0.1474,0.49135 0.327558,0.49135 0.180158,0 0.327571,-0.22111 0.327571,-0.49135 0,-0.27023 -0.147413,-0.49133 -0.327571,-0.49133 z m -4.325479,0.32755 c -0.206404,0 -0.180332,0.19384 0.06653,0.49134 0.44501,0.53622 1.310257,0.66766 1.310257,0.19898 -5.45e-4,-0.30151 -0.77528,-0.69032 -1.376789,-0.69032 z m 35.830301,0.65513 c -0.7174,0 -1.16372,0.42355 -0.81442,0.77284 0.33004,0.33005 0.64281,0.24906 1.08314,-0.2815 0.34006,-0.40975 0.29494,-0.49134 -0.26872,-0.49134 z m 33.32241,0.0576 c 0.005,-0.0444 -0.1317,-0.007 -0.40625,0.0794 -0.33002,0.10474 -0.73536,0.19066 -0.90079,0.19066 -0.16542,0 -0.30133,0.1474 -0.30133,0.32755 0,0.47429 0.43815,0.40265 1.1663,-0.19064 0.29092,-0.23705 0.43722,-0.36247 0.44207,-0.4069 z m 49.49197,0.26999 c -0.18016,0 -0.32757,0.1474 -0.32757,0.32756 0,0.18016 0.14741,0.32757 0.32757,0.32757 0.18015,0 0.32755,-0.14741 0.32755,-0.32757 0,-0.18016 -0.1474,-0.32756 -0.32755,-0.32756 z m -6.22369,0.98269 c -0.18017,0 -0.32756,0.1474 -0.32756,0.32756 0,0.18015 0.14739,0.32757 0.32756,0.32757 0.18015,0 0.32757,-0.14742 0.32757,-0.32757 0,-0.18016 -0.14742,-0.32756 -0.32757,-0.32756 z m -117.614639,0.32756 c -0.190793,0 -0.255306,0.14741 -0.143958,0.32757 0.111299,0.18015 0.267315,0.32755 0.34676,0.32755 0.07948,0 0.144589,-0.1474 0.144589,-0.32755 0,-0.18016 -0.156598,-0.32757 -0.347391,-0.32757 z m 7.409165,0 c -0.07948,0 -0.235399,0.14741 -0.346748,0.32757 -0.111299,0.18015 -0.04681,0.32755 0.143946,0.32755 0.190793,0 0.347391,-0.1474 0.347391,-0.32755 0,-0.18016 -0.06513,-0.32757 -0.144589,-0.32757 z m 35.868064,0.65512 c -0.19079,0 -0.34676,0.1474 -0.34676,0.32756 0,0.18016 0.0645,0.32757 0.14394,0.32757 0.0795,0 0.23607,-0.14741 0.34741,-0.32757 0.1113,-0.18016 0.0462,-0.32756 -0.14459,-0.32756 z m -4.6249,1.63782 c -0.19079,0 -0.25528,0.1474 -0.14394,0.32756 0.11129,0.18015 0.2673,0.32755 0.34674,0.32755 0.0795,0 0.14459,-0.1474 0.14459,-0.32755 0,-0.18016 -0.1566,-0.32756 -0.34739,-0.32756 z m 28.19018,2.62049 c -0.18016,0 -0.32757,0.14741 -0.32757,0.32757 0,0.18016 0.14741,0.32756 0.32757,0.32756 0.18016,0 0.32756,-0.1474 0.32756,-0.32756 0,-0.18016 -0.1474,-0.32757 -0.32756,-0.32757 z m -34.55781,10.80955 c -0.27024,0 -0.49134,0.14741 -0.49134,0.32757 0,0.18016 0.2211,0.32756 0.49134,0.32756 0.27023,0 0.49134,-0.1474 0.49134,-0.32756 0,-0.18016 -0.22111,-0.32757 -0.49134,-0.32757 z m 3.20781,1.10552 c -0.0594,0.0263 -0.096,0.0901 -0.096,0.18553 0,0.1908 0.14738,0.34676 0.32755,0.34676 0.18016,0 0.32756,-0.0651 0.32756,-0.14459 0,-0.0795 -0.1474,-0.23541 -0.32756,-0.34676 -0.0901,-0.0557 -0.17222,-0.0671 -0.2316,-0.041 z m -3.69915,0.20473 c -0.18017,0 -0.32756,0.14739 -0.32756,0.32756 0,0.18016 0.14739,0.32756 0.32756,0.32756 0.18016,0 0.32756,-0.1474 0.32756,-0.32756 0,-0.18017 -0.1474,-0.32756 -0.32756,-0.32756 z m -2.76509,0.65512 c -0.0795,0 -0.2354,0.14741 -0.34675,0.32757 -0.1113,0.18016 -0.0468,0.32756 0.14395,0.32756 0.19079,0 0.34739,-0.1474 0.34739,-0.32756 0,-0.18016 -0.0651,-0.32757 -0.14459,-0.32757 z m 5.38559,0 c -0.36032,0 -0.65513,0.14741 -0.65513,0.32757 0,0.18016 0.29481,0.32756 0.65513,0.32756 0.36032,0 0.65512,-0.1474 0.65512,-0.32756 0,-0.18016 -0.2948,-0.32757 -0.65512,-0.32757 z m -12.119808,0.98269 c -0.180158,0 -0.327558,0.14741 -0.327558,0.32757 0,0.18016 0.1474,0.32756 0.327558,0.32756 0.180158,0 0.32757,-0.1474 0.32757,-0.32756 0,-0.18016 -0.147412,-0.32757 -0.32757,-0.32757 z m 6.203858,0.32757 c -0.19079,0 -0.25531,0.14739 -0.14396,0.32756 0.1113,0.18015 0.26732,0.32755 0.34676,0.32755 0.0795,0 0.14459,-0.1474 0.14459,-0.32755 0,-0.18017 -0.1566,-0.32756 -0.34739,-0.32756 z m -4.893601,0.16378 c -0.180159,0.1113 -0.327571,0.34101 -0.327571,0.51054 0,0.16953 0.147412,0.30836 0.327571,0.30836 0.180158,0 0.327558,-0.22966 0.327558,-0.51053 0,-0.28088 -0.1474,-0.41971 -0.327558,-0.30837 z m -2.74974,0.8189 c -0.07081,0 -0.213622,0.2211 -0.317319,0.49134 -0.103747,0.27024 -0.04532,0.49135 0.129225,0.49135 0.174501,0 0.317332,-0.22111 0.317332,-0.49135 0,-0.27024 -0.05844,-0.49134 -0.129238,-0.49134 z m 8.645861,0.98269 c -0.18016,0 -0.32757,0.14739 -0.32757,0.32756 0,0.18016 0.14741,0.32756 0.32757,0.32756 0.18016,0 0.32756,-0.1474 0.32756,-0.32756 0,-0.18017 -0.1474,-0.32756 -0.32756,-0.32756 z m -16.559176,0.0876 c -0.120225,0.0916 -0.148588,0.29906 0.0071,0.55085 0.120584,0.19509 0.369341,0.26178 0.552755,0.14843 0.223725,-0.13826 0.218005,-0.32137 -0.01727,-0.55661 -0.210205,-0.2102 -0.422292,-0.23431 -0.54253,-0.14267 z m 12.147317,0.23992 c -0.29303,0 -0.40787,0.19204 -0.293017,0.49134 0.103746,0.27024 0.320216,0.49135 0.48111,0.49135 0.160882,0 0.293017,-0.22111 0.293017,-0.49135 0,-0.27024 -0.216519,-0.49134 -0.48111,-0.49134 z m -18.209765,0.98271 c -0.169523,0 -0.307737,0.1474 -0.307737,0.32756 0,0.18015 0.229667,0.32757 0.510539,0.32757 0.280872,0 0.419704,-0.14742 0.308368,-0.32757 -0.111299,-0.18016 -0.341646,-0.32756 -0.51117,-0.32756 z m 10.501814,0.98268 c -0.180159,0 -0.327558,0.1474 -0.327558,0.32756 0,0.18016 0.147399,0.32757 0.327558,0.32757 0.180158,0 0.32757,-0.14741 0.32757,-0.32757 0,-0.18016 -0.147412,-0.32756 -0.32757,-0.32756 z m 5.096413,0.32756 c -0.07948,0 -0.235424,0.14741 -0.34676,0.32757 -0.111299,0.18016 -0.0468,0.32756 0.143945,0.32756 0.190793,0 0.347404,-0.1474 0.347404,-0.32756 0,-0.18016 -0.06515,-0.32757 -0.144589,-0.32757 z m 3.843737,0.12281 c -0.0594,0.0263 -0.096,0.0901 -0.096,0.18554 0,0.19079 0.14741,0.34676 0.32757,0.34676 0.18016,0 0.32756,-0.0651 0.32756,-0.14459 0,-0.0795 -0.1474,-0.23542 -0.32756,-0.34676 -0.0901,-0.0557 -0.17223,-0.0671 -0.2316,-0.041 z m -2.090773,0.24568 c -0.296793,0.0281 -0.605038,0.38306 -0.430563,0.66535 0.138276,0.22374 0.321344,0.21802 0.556594,-0.0172 0.192848,-0.19284 0.259553,-0.44163 0.148428,-0.55275 -0.07803,-0.078 -0.175528,-0.10474 -0.274459,-0.0953 z m -8.323401,0.28662 c -0.501575,0 -0.671136,0.69348 -0.268071,1.09656 0.219949,0.21994 0.744515,-0.37175 0.754295,-0.85089 0.0025,-0.13512 -0.215974,-0.24567 -0.486224,-0.24567 z m -2.882171,0.1465 c -0.05842,-0.041 -0.139588,-0.0384 -0.229667,0.0172 -0.180158,0.1113 -0.32585,0.52526 -0.323089,0.92 0.0037,0.58345 0.06492,0.62592 0.323089,0.22647 0.174649,-0.27024 0.319696,-0.68415 0.322445,-0.91998 0.0012,-0.11786 -0.03434,-0.20274 -0.09278,-0.24376 z m 10.887608,2.474 c -0.169523,0 -0.307724,0.14738 -0.307724,0.32755 0,0.18016 0.229654,0.32756 0.510526,0.32756 0.280872,0 0.419717,-0.1474 0.308369,-0.32756 -0.111299,-0.18017 -0.341647,-0.32755 -0.511171,-0.32755 z m -6.367634,1.31024 c -0.270238,0 -0.491337,0.1474 -0.491337,0.32756 0,0.18016 0.221099,0.32757 0.491337,0.32757 0.270237,0 0.491349,-0.14741 0.491349,-0.32757 0,-0.18016 -0.221112,-0.32756 -0.491349,-0.32756 z m 6.05991,0.65513 c -0.180159,0 -0.327571,0.14739 -0.327571,0.32756 0,0.18016 0.147412,0.32756 0.327571,0.32756 0.180158,0 0.327558,-0.1474 0.327558,-0.32756 0,-0.18017 -0.1474,-0.32756 -0.327558,-0.32756 z m -4.402906,4.58586 c -0.280872,0 -0.510527,0.14741 -0.510527,0.32757 0,0.18016 0.138202,0.32756 0.307725,0.32756 0.169524,0 0.399822,-0.1474 0.51117,-0.32756 0.111299,-0.18016 -0.0275,-0.32757 -0.308368,-0.32757 z" /></g></svg>
